<?xml version="1.0" encoding="iso-8859-1"?>
<!-- Generator: Adobe Illustrator 19.0.0, SVG Export Plug-In . SVG Version: 6.00 Build 0)  -->
<svg version="1.1" id="Layer_1" xmlns="http://www.w3.org/2000/svg" xmlns:xlink="http://www.w3.org/1999/xlink" x="0px" y="0px"
	 viewBox="0 0 472.615 472.615" style="enable-background:new 0 0 472.615 472.615;" xml:space="preserve">
<g>
	<g>
		<path d="M390.936,9.121l-13.525,13.525l58.591,58.596h-95.214c-47.467,0-86.08,38.617-86.08,86.079v134.761
			c0,36.917-30.038,66.951-66.956,66.951H0v19.128h187.752c47.467,0,86.085-38.617,86.085-86.079V167.321
			c0-36.917,30.038-66.95,66.951-66.95h95.214l-58.591,58.595l13.525,13.525l81.68-81.685L390.936,9.121z"/>
	</g>
</g>
<g>
	<g>
		<path d="M390.936,300.125l-13.525,13.525l58.591,58.596h-95.214c-20.838,0-40.126-9.452-52.922-25.929l-15.113,11.732
			c16.448,21.179,41.247,33.326,68.035,33.326h95.214l-58.591,58.595l13.525,13.525l81.68-81.685L390.936,300.125z"/>
	</g>
</g>
<g>
	<g>
		<path d="M187.752,84.454H0v19.129h187.752c19.75,0,38.398,8.663,51.162,23.766l14.608-12.347
			C237.116,95.588,213.145,84.454,187.752,84.454z"/>
	</g>
</g>
<g>
</g>
<g>
</g>
<g>
</g>
<g>
</g>
<g>
</g>
<g>
</g>
<g>
</g>
<g>
</g>
<g>
</g>
<g>
</g>
<g>
</g>
<g>
</g>
<g>
</g>
<g>
</g>
<g>
</g>
</svg>
